<svg width="640" height="649" viewBox="0 0 640 649" fill="none" xmlns="http://www.w3.org/2000/svg">
<path d="M86 111.034L107.806 89L386.115 364.441L364.309 386.474L86 111.034Z" fill="#F8B023"/>
<path d="M97.4971 558.372L76 536.036L356.168 266.385L377.665 288.72L97.4971 558.372Z" fill="#F8B023"/>
<path d="M1.35505e-06 336L0 305L388.852 305V336L1.35505e-06 336Z" fill="#F8B023"/>
<path d="M17 213.754L28.5839 185L389.268 330.304L377.684 359.059L17 213.754Z" fill="#F8B023"/>
<path d="M28.3764 453.539L17 424.702L378.721 282L390.098 310.837L28.3764 453.539Z" fill="#F8B023"/>
<path d="M180 34.3245L208.445 22L363.038 378.801L334.593 391.125L180 34.3245Z" fill="#F8B023"/>
<path d="M207.417 622.845L179 610.458L334.383 254L362.8 266.387L207.417 622.845Z" fill="#F8B023"/>
<path d="M553.098 110.034L531.291 88L252.983 363.441L274.789 385.474L553.098 110.034Z" fill="#F8B023"/>
<path d="M541.601 557.372L563.098 535.036L282.93 265.385L261.433 287.72L541.601 557.372Z" fill="#F8B023"/>
<path d="M639.098 335V304L250.245 304V335L639.098 335Z" fill="#F8B023"/>
<path d="M622.098 212.754L610.514 184L249.83 329.305L261.414 358.059L622.098 212.754Z" fill="#F8B023"/>
<path d="M610.721 452.539L622.098 423.702L260.376 281L249 309.837L610.721 452.539Z" fill="#F8B023"/>
<path d="M459.098 33.3245L430.653 21L276.059 377.801L304.504 390.125L459.098 33.3245Z" fill="#F8B023"/>
<path d="M431.68 621.845L460.098 609.458L304.715 253L276.297 265.387L431.68 621.845Z" fill="#F8B023"/>
<path d="M335 388.852H304L304 2.71011e-06L335 0L335 388.852Z" fill="#F8B023"/>
<path d="M304 260H335L335 648.852L304 648.852L304 260Z" fill="#F8B023"/>
</svg>
