<?xml version="1.0" encoding="UTF-8"?>
<svg id="svg1162" width="945" height="1012.0062" version="1.1" viewBox="-5 -5 945 1012.0061" xmlns="http://www.w3.org/2000/svg">
 <path id="path996" d="m-5-5h945v630h-945z" fill="#ffffff"/>
 <g id="g1006" transform="matrix(35,0,0,35,170,170)" fill="#0038a8">
  <path id="path998" d="m5-3h17v2h-17z"/>
  <path id="path1000" d="m5 1h17v2h-17z"/>
  <path id="path1002" d="m-5 5h27v2h-27z"/>
  <path id="path1004" d="m-5 9h27v2h-27z"/>
 </g>
 <g id="g1160" transform="matrix(3.7795276,0,0,3.7795276,234.28536,-392.51935)">
  <g id="g1116" stroke="#7b3f00" stroke-miterlimit="20">
   <g id="g1106" fill="#fcd116">
    <path id="path1008" d="m-19.10564 157.88802 3.065521 4.57751c-12.596494 9.11582-4.906177 14.5064-13.832833 17.42431 5.55205-5.41829-0.733866-6.25397 3.94396-17.54724" stroke-linecap="square" stroke-width=".611"/>
    <g id="g1016" transform="matrix(.38981887 .941106 -.941106 .38981887 -17.008929 148.83334)" stroke-width=".6">
     <path id="path1010" d="m1.5 9 4.5 3c-8 13 1 15-6 21 3-7-3.0115852-5.58123-3.0115852-17.58123" stroke-linecap="square"/>
     <path id="path1012" d="m1.501 9-1.304 2.03 0.1 0.015c-0.99 6.447 0.12 10.63 0.933 13.883 0.406 1.627 0.745 3.026 0.687 4.367a5.658 5.658 0 0 1-0.71 2.538c4.649-5.153-2.663-7.713 4.795-19.833z" fill="#7b3f00" stroke-linecap="square" stroke-width=".273"/>
     <path id="path1014" d="m0 11c-2 13 4.5 17 0 22" fill="none"/>
    </g>
    <path id="path1018" d="m-17.008929 148.83334-4.321748-4.32175-19.447867 28.09136 28.091363-19.44786-4.321748-4.32175-23.769615 23.76961" stroke-width=".611"/>
    <g id="g1104" stroke-width=".6">
     <g id="g1032" transform="matrix(0,1.0186458,-1.0186458,0,-17.008929,148.83334)">
      <g id="g1026" transform="rotate(22.5)">
       <path id="path1020" d="m1.5 9 4.5 3c-8 13 1 15-6 21 3-7-3.0251906-5.447386-3.0251906-17.447386" stroke-linecap="square"/>
       <path id="path1022" d="m1.501 9-1.304 2.03 0.1 0.015c-0.99 6.447 0.12 10.63 0.933 13.883 0.406 1.627 0.745 3.026 0.687 4.367a5.658 5.658 0 0 1-0.71 2.538c4.649-5.153-2.663-7.713 4.795-19.833z" fill="#7b3f00" stroke-linecap="square" stroke-width=".273"/>
       <path id="path1024" d="m0 11c-2 13 4.5 17 0 22" fill="none"/>
      </g>
      <path id="path1028" d="m0 0h-6l6 33 6-33h-6v33"/>
      <path id="path1030" d="m0 0h6-6v33l6-33" fill="#7b3f00" stroke="none"/>
     </g>
     <g id="g1046" transform="matrix(-.72029135 .72029135 -.72029135 -.72029135 -17.008929 148.83334)">
      <g id="g1040" transform="rotate(22.5)">
       <path id="path1034" d="m1.5 9 4.5 3c-8 13 1 15-6 21 3-7-3.0161458-6.242258-3.0161458-18.242258" stroke-linecap="square"/>
       <path id="path1036" d="m1.501 9-1.304 2.03 0.1 0.015c-0.99 6.447 0.12 10.63 0.933 13.883 0.406 1.627 0.745 3.026 0.687 4.367a5.658 5.658 0 0 1-0.71 2.538c4.649-5.153-2.663-7.713 4.795-19.833z" fill="#7b3f00" stroke-linecap="square" stroke-width=".273"/>
       <path id="path1038" d="m0 11c-2 13 4.5 17 0 22" fill="none"/>
      </g>
      <path id="path1042" d="m0 0h-6l6 33 6-33h-6v33"/>
      <path id="path1044" d="m0 0h6-6v33l6-33" fill="#7b3f00" stroke="none"/>
     </g>
     <g id="g1074" transform="matrix(-1.0186458,0,0,-1.0186458,-17.008929,148.83334)">
      <g id="g1054" transform="rotate(22.5)">
       <path id="path1048" d="m1.5 9 4.5 3c-8 13 1 15-6 21 3-7-3.0076994-5.460989-3.0076994-17.460989" stroke-linecap="square"/>
       <path id="path1050" d="m1.501 9-1.304 2.03 0.1 0.015c-0.99 6.447 0.12 10.63 0.933 13.883 0.406 1.627 0.745 3.026 0.687 4.367a5.658 5.658 0 0 1-0.71 2.538c4.649-5.153-2.663-7.713 4.795-19.833z" fill="#7b3f00" stroke-linecap="square" stroke-width=".273"/>
       <path id="path1052" d="m0 11c-2 13 4.5 17 0 22" fill="none"/>
      </g>
      <path id="path1056" d="m0 0h-6l6 33 6-33h-6v33"/>
      <path id="path1058" d="m0 0h6-6v33l6-33" fill="#7b3f00" stroke="none"/>
      <g id="g1072" transform="rotate(45)">
       <g id="g1066" transform="rotate(22.5)">
        <path id="path1060" d="m1.5 9 4.5 3c-8 13 1 15-6 21 3-7-2.9510984-5.792844-2.9510984-17.792844" stroke-linecap="square"/>
        <path id="path1062" d="m1.501 9-1.304 2.03 0.1 0.015c-0.99 6.447 0.12 10.63 0.933 13.883 0.406 1.627 0.745 3.026 0.687 4.367a5.658 5.658 0 0 1-0.71 2.538c4.649-5.153-2.663-7.713 4.795-19.833z" fill="#7b3f00" stroke-linecap="square" stroke-width=".273"/>
        <path id="path1064" d="m0 11c-2 13 4.5 17 0 22" fill="none"/>
       </g>
       <path id="path1068" d="m0 0h-6l6 33 6-33h-6v33"/>
       <path id="path1070" d="m0 0h6-6v33l6-33" fill="#7b3f00" stroke="none"/>
      </g>
     </g>
     <g id="g1088" transform="matrix(0,-1.0186458,1.0186458,0,-17.008929,148.83334)">
      <g id="g1082" transform="rotate(22.5)">
       <path id="path1076" d="m1.5 9 4.5 3c-8 13 1 15-6 21 3-7-3.0167764-5.588488-3.0167764-17.588488" stroke-linecap="square"/>
       <path id="path1078" d="m1.501 9-1.304 2.03 0.1 0.015c-0.99 6.447 0.12 10.63 0.933 13.883 0.406 1.627 0.745 3.026 0.687 4.367a5.658 5.658 0 0 1-0.71 2.538c4.649-5.153-2.663-7.713 4.795-19.833z" fill="#7b3f00" stroke-linecap="square" stroke-width=".273"/>
       <path id="path1080" d="m0 11c-2 13 4.5 17 0 22" fill="none"/>
      </g>
      <path id="path1084" d="m0 0h-6l6 33 6-33h-6v33"/>
      <path id="path1086" d="m0 0h6-6v33l6-33" fill="#7b3f00" stroke="none"/>
     </g>
     <g id="g1102" transform="matrix(.72029135 -.72029135 .72029135 .72029135 -17.008929 148.83334)">
      <g id="g1096" transform="rotate(22.5)">
       <path id="path1090" d="m1.5 9 4.5 3c-8 13 1 15-6 21 3-7-2.9819012-5.660259-2.9819012-17.660259" stroke-linecap="square"/>
       <path id="path1092" d="m1.501 9-1.304 2.03 0.1 0.015c-0.99 6.447 0.12 10.63 0.933 13.883 0.406 1.627 0.745 3.026 0.687 4.367a5.658 5.658 0 0 1-0.71 2.538c4.649-5.153-2.663-7.713 4.795-19.833z" fill="#7b3f00" stroke-linecap="square" stroke-width=".273"/>
       <path id="path1094" d="m0 11c-2 13 4.5 17 0 22" fill="none"/>
      </g>
      <path id="path1098" d="m0 0h-6l6 33 6-33h-6v33"/>
      <path id="path1100" d="m0 0h6-6v33l6-33" fill="#7b3f00" stroke="none"/>
     </g>
    </g>
   </g>
   <path id="path1108" d="m-19.104699 157.88841-2.018534 1.40212 0.08826 0.0531c-3.444857 5.68139-4.030842 10.05074-4.533803 13.42908-0.252147 1.68944-0.478468 3.1382-1.0558 4.37761a5.763498 5.763498 0 0 1-1.657545 2.11176c6.383938-3.03725 0.500508-8.29684 12.243881-16.79578z" fill="#7b3f00" stroke-linecap="square" stroke-width=".278"/>
   <g id="g1114" stroke-width=".611">
    <path id="path1110" d="m-21.296937 159.18551c-6.949857 11.45474-2.391943 17.75298-8.576015 20.70433" fill="none"/>
    <path id="path1112" d="m-17.008929 148.83334h-6.111875l6.111875 33.61531 6.111875-33.61531h-6.111875v33.61531" fill="#fcd116"/>
   </g>
  </g>
  <path id="path1118" d="m-17.008929 148.83334h6.111875-6.111875v33.61531l6.111875-33.61531" fill="#7b3f00"/>
  <path id="path1120" d="m-17.008929 148.83334 4.321748 4.32175-4.321748-4.32175-23.769615 23.76961 28.091363-19.44786" fill="#7b3f00"/>
  <circle id="circle1122" cx="-17.009001" cy="148.83299" r="11.205" fill="#fcd116" stroke="#7b3f00" stroke-miterlimit="20" stroke-width=".611"/>
  <g id="g1158" fill="#7b3f00">
   <path id="path1124" d="m-8.757898 144.3513c-0.7130521 0.81492-1.1205104-0.61119-3.667125-0.61119-2.546614 0-2.954073 1.52797-3.361531 1.22238-0.407458-0.3056 2.139156-2.13916 2.954073-2.24102 0.814916-0.10187 3.1578018 0.71305 4.074583 1.62983m-2.954073 0.91678c0.713052 0.61119 0.101865 1.93543-0.611187 1.93543s-2.037292-1.22238-1.426104-2.03729"/>
   <path id="path1126" d="m-15.073502 146.18486c0.101865-1.22237 1.12051-1.4261 2.750344-1.4261 1.629833 0 2.342885 1.22237 2.9540725 1.52797-0.7130525 0-1.3242395-1.01865-2.9540725-1.01865-1.629834 0-1.629834 0-2.750344 1.01865m0.305594 0.20372c0.407458-0.61118 0.916781 0.61119 2.037291 0.61119 1.120511 0 1.731698-0.30559 2.44475-0.81491 0.7130523-0.50933-1.018646 1.22237-2.139156 1.22237s-2.648479-0.61119-2.342885-1.01865"/>
   <path id="path1128" d="m-22.713491 145.16638c-0.509323 0.20373-1.324239 1.22223 0 1.93528-1.018646-0.71305-0.203729-1.73155 0-1.93528z"/>
   <path id="path1130" d="m-11.304367 145.16638c0.203729 0.20373 1.018646 1.22223 0 1.93528 1.3242394-0.71305 0.509323-1.73155 0-1.93528z"/>
   <path id="path1132" d="m-18.638805 149.54648c-0.916781 0.20372-0.611351 1.52801-1.426268 1.62987-0.814916 0.10187-1.222211 1.0186-1.120346 0.91674 0.509323-0.40746 1.629897-0.71313 2.444813-0.71313 0.814917 0 1.018625 0.50952 1.731677 0.50952s0.91676-0.50952 1.731677-0.50952c0.814916 0 1.93549 0.30567 2.444813 0.71313 0.101865 0.10186-0.30543-0.81487-1.120346-0.91674-0.814917-0.10186-0.509487-1.42615-1.426268-1.62987 0 0.40745 0.305345 0.30555 0.407209 0.91674 0 0.50932-0.916617 0.50932-1.120346 0 0.203729 0.81491-0.407416 0.81493-0.916739 0.81493s-1.120468-2e-5 -0.916739-0.81493c-0.203729 0.50932-1.120346 0.50932-1.120346 0 0.101864-0.61119 0.407209-0.50929 0.407209-0.91674z"/>
   <path id="path1134" d="m-21.796749 153.00983c-0.814917 0.61119-1.018482 0.91682-1.120347 1.62987 0.244322-0.42756 0.36431-0.60327 0.549839-0.85472-0.0491-0.0211-0.09131-0.0405-0.142111-0.062 0.0593 7e-3 0.112419 0.0163 0.169498 0.0243 0.123195-0.1664 0.232648-0.31052 0.543121-0.73742z"/>
   <path id="path1136" d="m-22.33987 153.74725c-0.0029 4e-3 -0.01005 0.0137-0.01291 0.0176 0.127347 0.0296 0.26244 0.0434 0.404112 0.0439-0.124442-0.022-0.255239-0.0425-0.391192-0.0615z"/>
   <path id="path1138" d="m-21.948678 153.80875c0.635232 0.11214 1.133961 0.2583 1.591116 0.40617 0.570162-0.0422 1.356604-0.18655 3.348633-0.18655s2.778471 0.14436 3.348633 0.18655c0.457155-0.14787 0.955884-0.29403 1.591116-0.40617-1.122478 4e-3 -2.618591-0.79892-3.309873-0.79892-0.814917 0-1.018689 0.20361-1.629876 0.20361s-0.814959-0.20361-1.629876-0.20361c-0.691282 0-2.187395 0.80298-3.309873 0.79892z"/>
   <path id="path1140" d="m-12.06918 153.80875c0.141672-5.3e-4 0.276765-0.0143 0.404112-0.0439-0.0029-4e-3 -0.01-0.0136-0.01291-0.0176-0.135953 0.019-0.26675 0.0395-0.391192 0.0615z"/>
   <path id="path1142" d="m-11.677988 153.74725c0.05708-8e-3 0.110196-0.0169 0.169498-0.0243-0.0508 0.0215-0.09301 0.0409-0.142111 0.062 0.185529 0.25145 0.305517 0.42716 0.549839 0.85472-0.101865-0.71305-0.30543-1.01868-1.120347-1.62987 0.310473 0.4269 0.419926 0.57102 0.543121 0.73742z"/>
   <path id="path1144" d="m-11.650601 153.78498c-0.0011-2e-3 -4e-3 -6e-3 -0.0052-7e-3 -1.063112 0.40958-1.437402 0.47916-2.004528 0.43718-0.965814 0.31241-1.761951 0.62839-3.348633 0.62839s-2.382819-0.31598-3.348633-0.62839c-0.567126 0.042-0.941416-0.0276-2.004528-0.43718-0.0011 2e-3 -4e-3 6e-3 -0.0052 7e-3 3.200048 1.37735 2.8502 1.87327 5.358328 1.87327s2.15828-0.49592 5.358328-1.87327z"/>
   <path id="path1146" d="m-22.36209 153.77774c0.0021-3e-3 0.0072-0.0101 0.0093-0.0129-0.0531-0.0123-0.10655-0.0236-0.156578-0.0419 0.05815 0.0228 0.09302 0.0339 0.147278 0.0548z"/>
   <path id="path1148" d="m-11.655768 153.77774c0.05426-0.0209 0.08913-0.032 0.147278-0.0548-0.05003 0.0182-0.103476 0.0295-0.156578 0.0418 0.0021 3e-3 0.0072 0.0101 0.0093 0.0129z"/>
   <g id="g1154" transform="matrix(-.10186458 0 0 .10186458 -17.008929 148.83334)">
    <path id="path1150" d="m81-44c-7 8-11-6-36-6s-29 15-33 12 21-21 29-22 31 7 40 16m-29 9c7 6 1 19-6 19s-20-12-14-20"/>
    <path id="path1152" d="m19-26c1-12 11-14 27-14s23 12 29 15c-7 0-13-10-29-10s-16 0-27 10m3 2c4-6 9 6 20 6s17-3 24-8-10 12-21 12-26-6-23-10"/>
   </g>
   <path id="path1156" d="m-17.008929 156.57505c-0.509323 0-1.833562 0.30559 0 0.30559s0.509323-0.30559 0-0.30559"/>
  </g>
 </g>
 <g id="g1288" transform="matrix(2.4177607,0,0,2.4177607,54.06292,625)" fill="none" stroke="#000000" stroke-width="9.5">
  <circle id="circle1272" cx="54" cy="54" r="49.25" stroke="#0081c8"/>
  <circle id="circle1274" cx="171" cy="54" r="49.25"/>
  <circle id="circle1276" cx="288" cy="54" r="49.25" stroke="#ee334e"/>
  <circle id="circle1278" cx="112.5" cy="104" r="49.25" stroke="#fcb131"/>
  <circle id="circle1280" cx="229.5" cy="104" r="49.25" stroke="#00a651"/>
  <path id="path1282" d="m93.4 24.45a49.25 49.25 0 0 1 0 59.1" stroke="#0081c8"/>
  <path id="path1284" d="m210.4 24.45a49.25 49.25 0 0 1 0 59.1m-39.4 19.7a49.25 49.25 0 0 1-29.55-9.85"/>
  <path id="path1286" d="m288 103.25a49.25 49.25 0 0 1-29.55-9.85" stroke="#ee334e"/>
 </g>
</svg>
